<?xml version="1.0" encoding="utf-8"?>
<!-- Generator: Adobe Illustrator 16.0.0, SVG Export Plug-In . SVG Version: 6.00 Build 0)  -->
<!DOCTYPE svg PUBLIC "-//W3C//DTD SVG 1.1//EN" "http://www.w3.org/Graphics/SVG/1.1/DTD/svg11.dtd">
<svg version="1.1" id="Layer_1" xmlns="http://www.w3.org/2000/svg" xmlns:xlink="http://www.w3.org/1999/xlink" x="0px" y="0px"
	 width="800px" height="800px" viewBox="0 0 800 800" enable-background="new 0 0 800 800" xml:space="preserve">
<g>
	<g>
		<g>
			<path fill-rule="evenodd" clip-rule="evenodd" fill="#AAD491" d="M761.194,453.732c0.063,19.896-16.764,36.854-36.644,36.919
				c-19.887,0.065-36.852-16.765-36.924-36.637c-0.07-19.856,16.802-36.863,36.644-36.933
				C744.142,417.018,761.131,433.879,761.194,453.732z"/>
			<path fill-rule="evenodd" clip-rule="evenodd" fill="#27B24B" d="M327.052,95.312c-0.943,19.964-18.222,35.666-38.399,34.897
				c-20.46-0.782-36.533-18.752-35.221-39.377c1.257-19.774,19.014-35.352,39.043-34.257C312.346,57.66,327.999,75.2,327.052,95.312
				z"/>
			<path fill-rule="evenodd" clip-rule="evenodd" fill="#AAD491" d="M548.056,92.771c0.303,19.913-16.313,37.098-36.161,37.401
				c-19.918,0.303-37.1-16.304-37.408-36.151c-0.31-19.885,16.34-37.111,36.156-37.418
				C530.519,56.296,547.752,72.958,548.056,92.771z"/>
			<path fill-rule="evenodd" clip-rule="evenodd" fill="#27B24B" d="M229.708,151.138c0.067,20.136-16.262,36.743-36.355,36.97
				c-20.691,0.234-37.552-16.638-37.31-37.321c0.239-20.037,16.927-36.423,37.008-36.34
				C213.129,114.525,229.641,131.053,229.708,151.138z"/>
			<path fill-rule="evenodd" clip-rule="evenodd" fill="#AAD491" d="M609.088,114.494c19.849,0.224,36.555,17.358,36.326,37.246
				c-0.228,19.864-17.332,36.543-37.24,36.32c-19.865-0.224-36.549-17.323-36.329-37.236
				C572.067,130.991,589.209,114.267,609.088,114.494z"/>
			<path fill-rule="evenodd" clip-rule="evenodd" fill="#27B24B" d="M119,198.648c20.08-0.096,36.781,16.283,37.029,36.316
				c0.256,20.694-16.599,37.573-37.289,37.349c-20.09-0.22-36.434-16.82-36.373-36.95C82.426,215.279,98.917,198.748,119,198.648z"
				/>
			<path fill-rule="evenodd" clip-rule="evenodd" fill="#AAD491" d="M682.557,198.696c19.851,0.124,36.66,17.165,36.535,37.039
				c-0.126,19.871-17.134,36.65-37.029,36.53c-19.871-0.121-36.655-17.13-36.536-37.025
				C645.643,215.399,662.69,198.576,682.557,198.696z"/>
			<path fill-rule="evenodd" clip-rule="evenodd" fill="#27B24B" d="M116.559,340.173c0.272,20.164-15.875,36.967-35.934,37.391
				c-20.682,0.444-37.768-16.27-37.728-36.901c0.038-20.092,16.503-36.637,36.586-36.757
				C99.563,303.782,116.289,320.147,116.559,340.173z"/>
			<path fill-rule="evenodd" clip-rule="evenodd" fill="#AAD491" d="M758.562,340.601c0.065,19.895-16.764,36.854-36.644,36.919
				c-19.886,0.065-36.852-16.766-36.922-36.637c-0.072-19.857,16.8-36.864,36.644-36.933
				C741.511,303.885,758.498,320.747,758.562,340.601z"/>
			<path fill-rule="evenodd" clip-rule="evenodd" fill="#3C8740" d="M224.435,646.36c-0.177,20.095-16.734,36.457-36.867,36.437
				c-20.636-0.021-37.254-17.124-36.778-37.838c0.463-20.044,17.31-36.12,37.523-35.807
				C208.352,609.462,224.614,626.213,224.435,646.36z"/>
			<path fill-rule="evenodd" clip-rule="evenodd" fill="#3C8740" d="M614.397,609.152c20.074,0.224,36.407,16.868,36.319,37.012
				c-0.09,20.618-17.253,37.166-37.988,36.633c-20.019-0.521-36.035-17.427-35.658-37.643
				C577.449,625.077,594.191,608.925,614.397,609.152z"/>
			<path fill-rule="evenodd" clip-rule="evenodd" fill="#3C8740" d="M282.841,740.685c-20.198,0.225-36.943-15.921-37.322-35.975
				c-0.388-20.726,16.314-37.735,36.98-37.666c20.064,0.062,36.592,16.593,36.664,36.66
				C319.236,723.851,302.915,740.465,282.841,740.685z"/>
			<path fill-rule="evenodd" clip-rule="evenodd" fill="#3C8740" d="M555.985,704.214c-0.162,20.102-16.694,36.478-36.829,36.471
				c-20.646-0.003-37.273-17.078-36.814-37.8c0.444-20.036,17.284-36.141,37.487-35.841
				C539.874,667.336,556.147,684.067,555.985,704.214z"/>
			<path fill-rule="evenodd" clip-rule="evenodd" fill="#3C8740" d="M437.58,725.276c-0.162,20.102-16.695,36.475-36.832,36.471
				c-20.642-0.003-37.27-17.078-36.812-37.8c0.444-20.04,17.285-36.141,37.487-35.845
				C421.469,688.398,437.741,705.126,437.58,725.276z"/>
			<path fill-rule="evenodd" clip-rule="evenodd" fill="#27B24B" d="M113.921,453.303c0.272,20.16-15.875,36.963-35.934,37.391
				c-20.68,0.44-37.766-16.27-37.728-36.902c0.038-20.095,16.505-36.64,36.586-36.76C96.925,416.91,113.651,433.272,113.921,453.303
				z"/>
			<polygon fill-rule="evenodd" clip-rule="evenodd" fill="#BDD632" points="377.173,114.487 404.113,76.309 377.173,38.129 
				406.27,38.129 433.212,76.309 406.27,114.487 			"/>
			<polygon fill-rule="evenodd" clip-rule="evenodd" fill="#BDD632" points="664.703,514.279 680.95,558.095 727.676,557.472 
				711.221,581.465 664.495,582.091 648.248,538.279 			"/>
			<polygon fill-rule="evenodd" clip-rule="evenodd" fill="#BDD632" points="159.369,567.233 113.238,559.796 90.765,600.768 
				77.987,574.623 100.457,533.654 146.591,541.092 			"/>
		</g>
	</g>
	<g>
		<g>
			<path fill="#29B14B" d="M259.707,296.633c-1.473,2.426-4.039,4.408-7.698,5.943c-3.66,1.537-7.482,2.307-11.466,2.307
				c-7.493,0-13.382-1.874-17.67-5.62c-4.287-3.746-6.431-9.063-6.431-15.949c0-8.056,3.021-14.357,9.063-18.904
				c6.042-4.546,14.626-6.821,25.758-6.821c1.905,0,4.158,0.325,6.755,0.974c0-8.185-5.175-12.277-15.526-12.277
				c-6.106,0-11.217,1.018-15.331,3.053l-3.508-12.603c5.587-2.686,12.234-4.029,19.943-4.029c10.61,0,18.385,2.416,23.321,7.245
				c4.938,4.829,7.406,13.978,7.406,27.446v14.877c0,9.268,1.862,15.094,5.587,17.475c-1.343,2.338-2.836,3.779-4.482,4.319
				c-1.646,0.541-3.53,0.813-5.651,0.813c-2.339,0-4.44-0.868-6.301-2.6C261.612,300.553,260.356,298.668,259.707,296.633z
				 M258.147,270.843c-2.771-0.563-4.851-0.845-6.236-0.845c-12.82,0-19.229,4.201-19.229,12.603c0,6.237,3.615,9.355,10.849,9.355
				c9.744,0,14.616-4.872,14.616-14.616V270.843z"/>
			<path fill="#29B14B" d="M286.666,321.449l10.264-12.668c5.674,5.196,11.996,7.796,18.969,7.796c4.678,0,8.532-0.694,11.563-2.08
				c3.031-1.386,4.548-3.292,4.548-5.716c0-4.116-3.357-6.172-10.069-6.172c-1.819,0-4.526,0.217-8.121,0.649
				s-6.301,0.651-8.12,0.651c-11.173,0-16.76-4.006-16.76-12.019c0-2.295,0.931-4.546,2.793-6.755
				c1.862-2.209,4.028-3.833,6.497-4.873c-7.926-5.152-11.889-12.451-11.889-21.892c0-7.448,2.729-13.609,8.186-18.482
				c5.457-4.872,12.169-7.308,20.138-7.308c6.237,0,11.455,1.169,15.657,3.507l6.366-7.405l11.239,10.199l-7.731,5.652
				c2.685,4.072,4.028,8.878,4.028,14.42c0,7.927-2.415,14.26-7.243,19.002c-4.83,4.743-10.925,7.114-18.288,7.114
				c-1.169,0-2.728-0.107-4.677-0.326l-2.664-0.389c-0.304,0-1.461,0.466-3.476,1.396c-2.014,0.933-3.021,1.896-3.021,2.891
				c0,1.734,1.495,2.6,4.482,2.6c1.342,0,3.595-0.325,6.757-0.974c3.161-0.651,5.867-0.975,8.12-0.975
				c15.807,0,23.711,6.344,23.711,19.034c0,7.016-3.162,12.525-9.484,16.533c-6.324,4.004-13.945,6.008-22.867,6.008
				C304.92,330.868,295.284,327.728,286.666,321.449z M302.906,258.435c0,4.115,1.137,7.417,3.411,9.906
				c2.273,2.491,5.337,3.736,9.192,3.736c3.854,0,6.821-1.212,8.9-3.64c2.079-2.424,3.119-5.759,3.119-10.002
				c0-3.509-1.116-6.475-3.346-8.901c-2.231-2.424-5.122-3.638-8.673-3.638c-3.725,0-6.756,1.169-9.095,3.509
				C304.075,251.743,302.906,254.754,302.906,258.435z"/>
			<path fill="#29B14B" d="M362.997,303.583v-56.258h-8.9v-13.317h25.335v69.575H362.997z M371.377,207.049
				c2.599,0,4.817,0.921,6.658,2.762c1.84,1.84,2.762,4.06,2.762,6.657c0,2.598-0.921,4.819-2.762,6.66
				c-1.841,1.84-4.06,2.76-6.658,2.76c-2.598,0-4.818-0.919-6.659-2.76c-1.841-1.841-2.761-4.062-2.761-6.66
				c0-2.598,0.919-4.817,2.761-6.657C366.559,207.97,368.779,207.049,371.377,207.049z"/>
			<path fill="#29B14B" d="M401.128,208.089l16.243-3.898v78.214c0,8.576,2.555,13.686,7.665,15.331
				c-2.511,4.766-6.797,7.147-12.861,7.147c-7.364,0-11.047-5.11-11.047-15.332V208.089z"/>
			<path fill="#29B14B" d="M499.679,273.766h-49.696c0.303,5.544,2.207,9.853,5.716,12.926c3.509,3.077,8.229,4.612,14.162,4.612
				c7.406,0,13.036-1.927,16.89-5.781l6.301,12.408c-5.716,4.635-14.248,6.952-25.594,6.952c-10.612,0-19.004-3.108-25.174-9.323
				c-6.17-6.213-9.256-14.887-9.256-26.018c0-10.957,3.389-19.835,10.165-26.635c6.776-6.799,14.909-10.199,24.396-10.199
				c10.089,0,18.188,3.011,24.296,9.03c6.104,6.021,9.159,13.687,9.159,22.998C501.043,266.728,500.588,269.738,499.679,273.766z
				 M450.567,261.553h34.168c-1.126-10.176-6.756-15.266-16.89-15.266C458.577,246.287,452.816,251.376,450.567,261.553z"/>
		</g>
		<g>
			<path fill="#BCD530" d="M226.013,427.257v-56.258h-8.9v-13.317h25.335v69.575H226.013z M234.393,330.723
				c2.599,0,4.817,0.921,6.658,2.762c1.84,1.84,2.762,4.06,2.762,6.657c0,2.598-0.921,4.819-2.762,6.66
				c-1.841,1.84-4.06,2.76-6.658,2.76c-2.598,0-4.818-0.919-6.659-2.76c-1.841-1.841-2.761-4.062-2.761-6.66
				c0-2.598,0.919-4.817,2.761-6.657C229.575,331.644,231.795,330.723,234.393,330.723z"/>
			<path fill="#BCD530" d="M306.112,427.257v-40.212c0-5.933-1.137-10.263-3.411-12.992c-2.273-2.729-5.988-4.092-11.141-4.092
				c-2.383,0-4.927,0.671-7.634,2.013c-2.707,1.343-4.818,3.011-6.333,5.003v50.28h-16.24v-69.575h11.693l2.988,6.496
				c4.417-5.196,10.935-7.796,19.553-7.796c8.272,0,14.801,2.481,19.586,7.439c4.785,4.958,7.178,11.877,7.178,20.754v42.681
				H306.112z"/>
			<path fill="#BCD530" d="M382.442,370.739h-8.056v-13.057h8.056V343.52l16.241-5.976v20.138h19.101v13.057h-19.101v30.468
				c0,4.98,0.778,8.5,2.338,10.557c1.561,2.058,4.288,3.086,8.186,3.086s7.537-1.061,10.915-3.184v14.942
				c-3.771,1.298-9.139,1.948-16.111,1.948c-6.932,0-12.258-1.959-15.981-5.879c-3.726-3.92-5.587-9.495-5.587-16.728V370.739z"/>
			<path fill="#BCD530" d="M477.742,427.257v-42.875c0-4.287-1.343-7.73-4.028-10.329c-2.687-2.6-6.191-3.897-10.523-3.897
				c-2.686,0-5.392,0.725-8.119,2.176c-2.73,1.452-4.679,3.108-5.847,4.969v49.957h-16.5v-95.494l16.5-3.898V362.1
				c4.201-3.81,9.982-5.718,17.344-5.718c8.705,0,15.461,2.416,20.268,7.245c4.811,4.829,7.214,11.747,7.214,20.755v42.875H477.742z
				"/>
			<path fill="#BCD530" d="M573.692,397.44h-49.696c0.303,5.543,2.21,9.853,5.715,12.926c3.509,3.076,8.229,4.612,14.163,4.612
				c7.406,0,13.036-1.927,16.893-5.781l6.301,12.408c-5.719,4.634-14.252,6.951-25.597,6.951c-10.609,0-19-3.107-25.171-9.322
				c-6.174-6.214-9.259-14.887-9.259-26.018c0-10.957,3.388-19.835,10.168-26.635c6.776-6.799,14.909-10.199,24.393-10.199
				c10.092,0,18.19,3.011,24.295,9.03c6.108,6.021,9.159,13.687,9.159,22.998C575.056,390.402,574.602,393.411,573.692,397.44z
				 M524.581,385.227h34.171c-1.126-10.176-6.756-15.266-16.893-15.266C532.594,369.961,526.833,375.05,524.581,385.227z"/>
		</g>
		<g>
			<path fill="#29B14B" d="M206.141,565.825v-14.488c8.662,0,14.52-1.027,17.573-3.085s4.58-5.748,4.58-11.075v-54.829h-12.538
				v-13.382h28.779v67.951c0,9.96-3.13,17.268-9.387,21.925C228.888,563.495,219.22,565.825,206.141,565.825z M235.894,442.007
				c2.598,0,4.817,0.921,6.659,2.761c1.84,1.841,2.761,4.06,2.761,6.658c0,2.598-0.92,4.818-2.761,6.659
				c-1.841,1.84-4.061,2.76-6.659,2.76c-2.599,0-4.819-0.92-6.658-2.76c-1.841-1.841-2.762-4.062-2.762-6.659
				c0-2.599,0.92-4.817,2.762-6.658C231.075,442.928,233.295,442.007,235.894,442.007z"/>
			<path fill="#29B14B" d="M309.301,538.605v-5.847c-2.296,1.949-5.457,3.616-9.484,5.002s-7.73,2.079-11.108,2.079
				c-16.155,0-24.231-8.575-24.231-25.727v-45.147h16.24v43.913c0,8.924,4.005,13.383,12.019,13.383
				c3.68,0,7.102-0.952,10.264-2.858c3.161-1.903,5.262-4.112,6.301-6.626v-47.812h16.241v69.64H309.301z"/>
			<path fill="#29B14B" d="M387.841,538.54v-40.212c0-5.933-1.137-10.263-3.411-12.991c-2.273-2.729-5.988-4.093-11.141-4.093
				c-2.383,0-4.927,0.672-7.634,2.013c-2.708,1.343-4.818,3.011-6.334,5.003v50.28h-16.24v-69.574h11.693l2.988,6.495
				c4.418-5.195,10.935-7.795,19.554-7.795c8.271,0,14.801,2.48,19.587,7.438c4.784,4.959,7.177,11.878,7.177,20.755v42.681H387.841
				z"/>
			<path fill="#29B14B" d="M416.424,556.406l10.265-12.668c5.671,5.195,11.996,7.795,18.969,7.795c4.677,0,8.533-0.693,11.563-2.079
				c3.03-1.386,4.549-3.292,4.549-5.716c0-4.117-3.357-6.172-10.071-6.172c-1.818,0-4.524,0.217-8.119,0.648
				c-3.595,0.433-6.302,0.65-8.119,0.65c-11.174,0-16.762-4.006-16.762-12.019c0-2.295,0.933-4.547,2.792-6.756
				c1.862-2.208,4.028-3.832,6.497-4.872c-7.926-5.152-11.886-12.45-11.886-21.892c0-7.448,2.728-13.61,8.185-18.482
				c5.458-4.872,12.169-7.309,20.137-7.309c6.239,0,11.455,1.169,15.656,3.508l6.366-7.405l11.239,10.199l-7.73,5.652
				c2.686,4.071,4.029,8.878,4.029,14.42c0,7.927-2.418,14.261-7.245,19.002c-4.831,4.743-10.926,7.113-18.287,7.113
				c-1.171,0-2.728-0.106-4.676-0.325l-2.665-0.389c-0.304,0-1.46,0.467-3.475,1.396c-2.015,0.933-3.02,1.896-3.02,2.891
				c0,1.733,1.49,2.6,4.479,2.6c1.343,0,3.595-0.325,6.756-0.975c3.161-0.651,5.87-0.975,8.122-0.975
				c15.805,0,23.711,6.345,23.711,19.034c0,7.016-3.161,12.525-9.486,16.533c-6.322,4.005-13.945,6.009-22.867,6.009
				C434.677,565.825,425.043,562.685,416.424,556.406z M432.666,493.393c0,4.114,1.137,7.416,3.409,9.906
				c2.272,2.491,5.337,3.735,9.193,3.735c3.853,0,6.821-1.212,8.897-3.64c2.08-2.424,3.119-5.759,3.119-10.002
				c0-3.509-1.115-6.476-3.347-8.901c-2.231-2.424-5.12-3.638-8.67-3.638c-3.726,0-6.756,1.169-9.097,3.509
				C433.833,486.7,432.666,489.711,432.666,493.393z"/>
			<path fill="#29B14B" d="M491.195,443.046l16.241-3.897v78.214c0,8.575,2.556,13.686,7.665,15.331
				c-2.51,4.766-6.797,7.146-12.86,7.146c-7.365,0-11.046-5.109-11.046-15.331V443.046z"/>
			<path fill="#29B14B" d="M589.745,508.724h-49.697c0.304,5.543,2.207,9.853,5.716,12.926c3.509,3.076,8.229,4.612,14.162,4.612
				c7.407,0,13.037-1.927,16.89-5.781l6.301,12.408c-5.716,4.634-14.248,6.951-25.594,6.951c-10.612,0-19.003-3.107-25.174-9.322
				c-6.17-6.214-9.255-14.887-9.255-26.018c0-10.956,3.388-19.835,10.164-26.636c6.776-6.798,14.909-10.198,24.396-10.198
				c10.089,0,18.188,3.011,24.296,9.029c6.105,6.021,9.159,13.688,9.159,22.998C591.108,501.686,590.654,504.694,589.745,508.724z
				 M540.634,496.51h34.167c-1.126-10.177-6.756-15.266-16.889-15.266C548.643,481.244,542.882,486.333,540.634,496.51z"/>
		</g>
	</g>
</g>
</svg>
